<?xml version="1.0" encoding="UTF-8"?>
<svg version="1.1" xmlns="http://www.w3.org/2000/svg" width="64" height="64">
<path d="M0 0 C3.27610475 1.15586994 4.33322926 2.58442728 5.87109375 5.66015625 C6.71676392 10.44347813 6.33288277 13.75307067 4.12109375 18.09765625 C0.83883569 21.83578349 0.83883569 21.83578349 -2.12890625 22.66015625 C-4.81978501 22.80504972 -7.42925936 22.75014448 -10.12890625 22.66015625 C-9.46890625 23.65015625 -8.80890625 24.64015625 -8.12890625 25.66015625 C-7.31917221 30.68903079 -7.31386571 34.485539 -10.25390625 38.72265625 C-13.45582513 40.88047115 -15.27091376 41.66015625 -19.12890625 41.66015625 C-21.45622181 40.52235753 -23.29731339 39.49174911 -25.12890625 37.66015625 C-25.4020544 31.92404514 -25.4020544 31.92404514 -25.12890625 29.66015625 C-24.46890625 29.00015625 -23.80890625 28.34015625 -23.12890625 27.66015625 C-21.80890625 27.66015625 -20.48890625 27.66015625 -19.12890625 27.66015625 C-19.40734375 29.08328125 -19.40734375 29.08328125 -19.69140625 30.53515625 C-20.41577257 33.55884418 -20.41577257 33.55884418 -19.12890625 35.66015625 C-16.65390625 35.16515625 -16.65390625 35.16515625 -14.12890625 34.66015625 C-13.37245817 31.93694317 -12.95859113 30.20206801 -13.81640625 27.47265625 C-15.49332139 25.1569163 -16.4205692 24.65855506 -19.12890625 23.66015625 C-22.09941781 23.32510182 -25.06353011 23.28754621 -28.05078125 23.24609375 C-28.91076721 23.2267276 -29.77075317 23.20736145 -30.65679932 23.18740845 C-33.39740146 23.12773811 -36.13804589 23.08127765 -38.87890625 23.03515625 C-40.73960142 22.99696491 -42.60027913 22.9579125 -44.4609375 22.91796875 C-49.01678489 22.8220469 -53.57271504 22.73796957 -58.12890625 22.66015625 C-58.12890625 21.34015625 -58.12890625 20.02015625 -58.12890625 18.66015625 C-57.50551865 18.6520694 -56.88213104 18.64398254 -56.23985291 18.63565063 C-49.7343249 18.54939644 -43.22909429 18.44988411 -36.72387695 18.34277344 C-34.29814663 18.30456021 -31.87236112 18.26969414 -29.4465332 18.23828125 C-25.95373858 18.19246472 -22.46132136 18.13449684 -18.96875 18.07421875 C-17.88931625 18.06266754 -16.80988251 18.05111633 -15.69773865 18.03921509 C-10.13835477 17.930974 -5.38369871 17.51478888 -0.12890625 15.66015625 C1.0709742 10.37816032 1.0709742 10.37816032 -1.12890625 5.66015625 C-2.44890625 5.66015625 -3.76890625 5.66015625 -5.12890625 5.66015625 C-5.12890625 8.30015625 -5.12890625 10.94015625 -5.12890625 13.66015625 C-7.56640625 13.28515625 -7.56640625 13.28515625 -10.12890625 12.66015625 C-11.69320873 9.5315513 -11.48517909 7.104127 -11.12890625 3.66015625 C-7.85454625 -0.43279376 -4.91292453 -0.95658077 0 0 Z " fill="#6ABEEE" transform="translate(58.12890625,15.33984375)"/>
<path d="M0 0 C2.94377608 2.04784423 4.68832832 3.52836763 5.44921875 7.12109375 C5.71252541 12.50526093 4.63696713 15.85789854 1 20 C-2.75082468 22.65128949 -6.86084385 22.2546083 -11.265625 22.1953125 C-12.05902283 22.1924826 -12.85242065 22.18965271 -13.66986084 22.18673706 C-16.19672917 22.17556779 -18.72323932 22.15046944 -21.25 22.125 C-22.9661407 22.11496598 -24.68228698 22.10584087 -26.3984375 22.09765625 C-30.59909574 22.07563914 -34.7994872 22.04113187 -39 22 C-39 20.68 -39 19.36 -39 18 C-37.53191895 17.970271 -37.53191895 17.970271 -36.03417969 17.93994141 C-32.39606403 17.86375376 -28.75834147 17.77505705 -25.12060547 17.68261719 C-23.54744235 17.64438171 -21.97419342 17.60951934 -20.40087891 17.578125 C-18.13673277 17.53235578 -15.87317453 17.47438239 -13.609375 17.4140625 C-12.90818542 17.40251129 -12.20699585 17.39096008 -11.48455811 17.37905884 C-7.86107467 17.27003494 -5.04397457 17.06046546 -2 15 C-0.15964647 12.45855941 0.05332214 11.39102902 -0.375 8.25 C-0.58125 7.5075 -0.7875 6.765 -1 6 C-3.475 5.505 -3.475 5.505 -6 5 C-6 6.32 -6 7.64 -6 9 C-6 10.32 -6 11.64 -6 13 C-10.875 12.125 -10.875 12.125 -12 11 C-12.47124825 3.69565217 -12.47124825 3.69565217 -10.6875 1.0625 C-6.88845924 -1.32948863 -4.21075997 -1.17901279 0 0 Z " fill="#11A8FF" transform="translate(39,8)"/>
<path d="M0 0 C1.45742463 -0.08096803 2.91612807 -0.13917774 4.375 -0.1875 C5.18710937 -0.22230469 5.99921875 -0.25710937 6.8359375 -0.29296875 C7.55007812 -0.19628906 8.26421875 -0.09960938 9 0 C11.82813113 4.24219669 11.77040656 8.0201555 11 13 C8.58880495 16.47495757 6.98930657 17.67023114 3 19 C-0.57886526 19 -2.15975675 18.10989498 -5 16 C-6.89488952 14.10511048 -6.18019112 11.42860854 -6.23046875 8.91015625 C-6 7 -6 7 -4 5 C-2.68 5 -1.36 5 0 5 C-0.185625 5.94875 -0.37125 6.8975 -0.5625 7.875 C-1.28686632 10.89868793 -1.28686632 10.89868793 0 13 C1.65 12.67 3.3 12.34 5 12 C5.74837142 9.30586287 6.18449471 7.57025639 5.3125 4.875 C3.80468487 2.72097839 2.17767392 1.45178261 0 0 Z " fill="#11A7FF" transform="translate(39,38)"/>
<path d="M0 0 C10.89 0 21.78 0 33 0 C33 1.32 33 2.64 33 4 C22.11 4 11.22 4 0 4 C0 2.68 0 1.36 0 0 Z " fill="#85DCFE" transform="translate(0,34)"/>
<path d="M0 0 C10.89 0 21.78 0 33 0 C33 1.32 33 2.64 33 4 C22.11 4 11.22 4 0 4 C0 2.68 0 1.36 0 0 Z " fill="#6BBDEE" transform="translate(0,26)"/>
<path d="M0 0 C7.59 0 15.18 0 23 0 C23 1.65 23 3.3 23 5 C15.41 5 7.82 5 0 5 C0 3.35 0 1.7 0 0 Z " fill="#6CBDED" transform="translate(6,41)"/>
<path d="M0 0 C5.61 0 11.22 0 17 0 C17 1.65 17 3.3 17 5 C11.39 5 5.78 5 0 5 C0 3.35 0 1.7 0 0 Z " fill="#86DDFF" transform="translate(6,18)"/>
<path d="M0 0 C0 4.33333333 0 8.66666667 0 13 C-4.875 12.125 -4.875 12.125 -6 11 C-6.46993007 3.71608392 -6.46993007 3.71608392 -4.6875 1 C-3 0 -3 0 0 0 Z " fill="#6BBDED" transform="translate(33,8)"/>
</svg>
